<svg width="45" height="53" viewBox="0 0 45 53" fill="none" xmlns="http://www.w3.org/2000/svg">
<path fill-rule="evenodd" clip-rule="evenodd" d="M11.2903 3.26901C11.1272 3.38088 11.0369 3.82559 10.9951 4.72227L10.935 6.01437L10.3557 6.06677L9.77663 6.11917V10.0837V14.0482L10.4522 14.1012L11.1278 14.1543V16.8039V19.4538L10.3945 19.851C9.38875 20.3957 8.20779 21.8437 7.78129 23.0552C7.30836 24.3983 7.31552 26.1008 7.79973 27.492C8.28314 28.8811 9.57872 30.2968 10.8905 30.8695L11.8432 31.2854H21.4724H31.1016L31.6709 30.8624C32.3544 30.3542 32.6795 29.7968 32.831 28.8722C32.8954 28.4802 33.1383 27.9595 33.394 27.6656C33.8786 27.1087 34.3369 26.0722 34.3369 25.5335C34.3369 25.3387 34.5562 25.0598 34.8646 24.8627C35.4558 24.4845 35.9265 23.5656 35.9265 22.7899C35.9265 22.4289 36.0473 22.1897 36.3316 21.9878C37.3157 21.2885 37.6542 19.6467 37.0625 18.441C36.695 17.692 35.7243 17.0713 34.9149 17.0675C34.321 17.0649 33.0651 17.6696 33.0651 17.9583C33.0651 18.0357 32.6774 18.099 32.2034 18.099C31.3807 18.099 31.3372 18.0762 31.2399 17.5963C31.1316 17.062 30.8333 16.8396 30.4422 17.0023C30.2785 17.0706 30.2038 17.3481 30.2038 17.8883C30.2038 18.388 30.1047 18.7936 29.9326 19C29.7044 19.2733 29.6938 19.3809 29.865 19.6782C30.0391 19.9804 30.0222 20.0852 29.7493 20.4012C29.0048 21.263 28.9511 22.4083 29.655 22.4083C29.9426 22.4083 30.0647 22.2895 30.1421 21.9342C30.199 21.6736 30.3945 21.2823 30.5765 21.0651C30.8604 20.7264 30.8786 20.6194 30.7042 20.3167C30.3642 19.7263 30.8573 19.4898 32.4414 19.4835C33.6865 19.4785 33.8369 19.4407 34.1779 19.047C35.1797 17.8908 36.7021 19.3049 35.7811 20.5361L35.4767 20.9431L35.0635 20.523C34.4443 19.8932 33.0278 19.8163 32.2744 20.3715C31.5434 20.9102 31.1765 21.611 31.4122 22.0189C31.6964 22.5106 32.2671 22.4948 32.7046 21.983C33.5058 21.0462 34.878 21.7655 34.5979 22.9754C34.4214 23.7379 33.9744 23.8615 33.2724 23.3416C32.7533 22.9573 32.5382 22.9038 31.7519 22.964C30.9714 23.0235 30.7541 23.12 30.2815 23.6168C29.7127 24.2144 29.5803 24.766 29.9176 25.1317C30.2227 25.4625 30.6946 25.3725 31.0921 24.9076C31.9998 23.8457 33.5339 24.9287 32.9106 26.1915C32.655 26.7094 32.3019 26.7306 31.674 26.2656C31.1642 25.8881 30.9457 25.8345 30.1623 25.8943C29.3817 25.9538 29.1644 26.0503 28.6918 26.5471C28.1231 27.1447 27.9906 27.6963 28.328 28.062C28.6365 28.3966 29.167 28.3006 29.5679 27.838C30.0675 27.2614 30.7179 27.2709 31.1459 27.8612C31.554 28.4235 31.5621 28.8041 31.1774 29.3191L30.8795 29.7184L21.8272 29.7906C13.6072 29.8561 12.6883 29.8356 11.8322 29.5658C10.1343 29.0309 8.74335 27.048 8.74335 25.1622C8.74335 24.4097 9.16429 23.1236 9.62513 22.4686C10.1016 21.7912 11.3528 20.8569 11.7834 20.8569C12.4794 20.8569 12.5585 20.4858 12.5585 17.2249V14.1344H15.6584H18.7582V16.1462V18.1581L19.4338 18.8678C20.5302 20.0195 20.5404 20.0416 20.2582 20.6547C20.1218 20.9512 20.0326 21.4864 20.0598 21.8441C20.0997 22.3678 20.1792 22.5051 20.4677 22.5496C20.6904 22.5839 20.8648 22.4955 20.9283 22.3164C21.009 22.0882 21.0748 22.1423 21.2427 22.5751C21.4059 22.9962 21.538 23.1098 21.8154 23.0671C22.1445 23.0164 22.176 22.9211 22.176 21.9773C22.176 21.0351 22.144 20.9381 21.8174 20.8879C21.5659 20.8492 21.4104 20.9522 21.2971 21.2327C21.1481 21.6012 21.1424 21.5941 21.2254 21.142C21.2748 20.8723 21.2395 20.5525 21.1468 20.4313C21.0542 20.3102 21.0209 20.0906 21.0731 19.9433C21.1251 19.7961 21.1801 19.1089 21.195 18.4163C21.2192 17.2999 21.1877 17.1497 20.9176 17.0928C20.7348 17.0542 20.4978 17.1909 20.325 17.4345C20.0415 17.834 20.0369 17.8109 20.0334 15.9874L20.0299 14.1344H20.5669C20.8621 14.1344 21.1855 14.0277 21.2853 13.8973C21.4123 13.7313 21.4541 12.5255 21.4241 9.88962L21.3811 6.11917L20.7121 6.06659L20.043 6.01385L19.9967 4.70572C19.9616 3.71011 19.8872 3.35433 19.6856 3.21695C19.1663 2.86307 18.9172 3.36381 18.9172 4.76123V6.03298H15.5789H12.2406V4.83862C12.2406 3.9828 12.1699 3.56773 11.9909 3.37346C11.7028 3.0613 11.613 3.04786 11.2903 3.26901ZM10.8099 10.0837V12.9278H15.5789H20.3479V10.0837V7.23958H15.5789H10.8099V10.0837ZM21.7606 17.194C21.1843 18.8109 21.5037 20.4032 22.3349 20.0575C22.5058 19.9863 22.5766 19.6829 22.5845 18.9855C22.5907 18.4504 22.6532 17.8577 22.7236 17.668C22.8918 17.2142 22.6429 16.72 22.2459 16.72C22.0479 16.72 21.8665 16.8972 21.7606 17.194ZM23.294 16.9355C23.2587 17.0541 23.2263 17.3836 23.222 17.668C23.2177 17.9525 23.1951 18.4954 23.1719 18.8746C23.1355 19.4693 23.1775 19.5715 23.4773 19.6177C23.7518 19.6601 23.8909 19.5157 24.1413 18.9283C24.4222 18.2691 24.4484 18.246 24.374 18.7243C24.2778 19.3418 24.5408 19.9951 24.8854 19.9951C25.0749 19.9951 25.0839 20.0569 24.9328 20.3193C24.7797 20.5851 24.8078 20.7287 25.0887 21.1158C25.3208 21.4359 25.4004 21.7208 25.3357 22.0004C25.2447 22.394 25.4888 22.9254 25.7608 22.9254C26.0851 22.9254 26.3886 22.3297 26.3886 21.6933C26.3886 21.1458 26.2833 20.8893 25.881 20.4558C25.472 20.0151 25.3823 19.7917 25.4197 19.3057C25.4744 18.5926 25.7704 17.898 25.8748 18.2374C25.9126 18.3605 25.8543 18.695 25.7451 18.981C25.5753 19.4252 25.585 19.5422 25.8115 19.788C26.1725 20.1795 26.5673 19.8965 26.8253 19.0612C27.0785 18.2417 26.8543 17.6834 26.3167 17.7949C26.0411 17.852 25.9714 17.802 26.0239 17.5844C26.0617 17.4276 25.9842 17.2016 25.8516 17.0822C25.5518 16.8124 25.2005 17.0042 24.8088 17.6518L24.5217 18.1262L24.4091 17.6396C24.3471 17.3719 24.2219 17.0554 24.1308 16.9365C23.9171 16.6573 23.3771 16.6566 23.294 16.9355ZM27.2107 16.9429C26.9802 17.2438 27.3319 19.2644 27.6368 19.3912C28.2146 19.6317 28.4974 18.523 28.1272 17.4672C27.8774 16.7548 27.5139 16.5468 27.2107 16.9429ZM28.7201 17.0073C28.524 17.2199 28.6119 18.2272 28.8449 18.4368C29.1892 18.7466 29.6402 18.5811 29.7003 18.1228C29.7965 17.389 29.5922 16.8924 29.194 16.8924C28.9916 16.8924 28.7783 16.9441 28.7201 17.0073ZM28.6344 19.1927C28.0367 19.9737 28.4353 21.2418 29.0797 20.6094C29.245 20.4472 29.4256 20.1188 29.4809 19.8797C29.648 19.1582 29.0392 18.6642 28.6344 19.1927ZM18.4721 19.34C18.1993 19.6358 18.2335 19.8897 18.639 20.5791C19.0199 21.2265 19.6452 21.4185 19.8145 20.94C19.9425 20.5787 19.5782 19.6889 19.1779 19.3849C18.7762 19.0799 18.7156 19.076 18.4721 19.34ZM26.6925 19.7548C26.396 20.1424 26.4294 21.4921 26.744 21.8332C26.8888 21.9903 27.116 22.0552 27.2994 21.9922C27.5691 21.8992 27.608 21.7322 27.5954 20.7247C27.5824 19.6853 27.5462 19.5588 27.2489 19.5128C27.0664 19.4845 26.816 19.5934 26.6925 19.7548ZM22.4732 20.2498C22.314 20.7001 22.5306 21.948 22.806 22.1664C23.0311 22.3448 23.0323 22.379 22.8165 22.4686C22.4758 22.6105 22.5139 23.1417 22.9037 23.6788C23.3727 24.3254 23.809 24.5514 24.0937 24.2952C24.4196 24.0018 24.3764 23.6276 23.9643 23.1769C23.2933 22.4426 23.2425 22.3269 23.4838 22.0825C23.6135 21.9511 23.6607 21.7364 23.596 21.5717C23.5345 21.4156 23.4393 21.0164 23.3844 20.6845C23.3094 20.2322 23.1953 20.0675 22.9282 20.0261C22.7115 19.9925 22.5333 20.0802 22.4732 20.2498ZM23.6275 20.6015C23.573 20.7557 23.5968 21.0205 23.6804 21.1899C23.764 21.3594 23.7919 21.7688 23.7423 22.0999C23.6401 22.7828 23.957 23.0571 24.4907 22.7475C25.2129 22.3283 24.9375 20.4755 24.1379 20.3736C23.8723 20.3396 23.6917 20.4205 23.6275 20.6015ZM27.9086 21.0121C27.86 21.0974 27.8248 21.3494 27.8304 21.5723C27.836 21.795 27.7493 22.3074 27.6379 22.7109C27.464 23.3401 27.4699 23.4821 27.6784 23.7085C28.0542 24.1159 28.4016 23.8434 28.679 22.9236C28.981 21.9229 29.0002 21.3446 28.7413 21.0638C28.5168 20.8204 28.0348 20.7906 27.9086 21.0121ZM19.0013 21.8246C18.7059 22.1447 18.7065 22.1178 18.9801 22.8016C19.2931 23.5845 20.1177 24.4955 20.4051 24.3759C20.8122 24.2066 20.8566 23.7412 20.5097 23.2786C20.3285 23.0369 20.0775 22.5965 19.952 22.2998C19.675 21.6452 19.3271 21.4712 19.0013 21.8246ZM17.6818 21.9206C17.227 22.4138 17.7483 23.9596 18.3695 23.9596C18.8785 23.9596 18.9692 23.7226 18.7488 22.9674C18.395 21.755 18.1007 21.4664 17.6818 21.9206ZM26.2649 22.9685C26.1756 23.0871 26.0773 23.7269 26.0468 24.3905C25.994 25.5349 26.0098 25.6001 26.3522 25.6526C26.6366 25.6964 26.7629 25.5789 26.9483 25.0979C27.232 24.3617 27.2551 23.2444 26.9926 22.9598C26.7469 22.6934 26.47 22.6966 26.2649 22.9685ZM24.7945 23.362C24.4681 23.7884 24.4009 25.2243 24.6948 25.4887C25.224 25.9651 25.5073 25.6612 25.6267 24.4893C25.6885 23.8824 25.7022 23.321 25.657 23.2418C25.523 23.0066 25.0121 23.0777 24.7945 23.362ZM21.3913 23.5971C21.3428 23.6821 21.3478 24.1042 21.4023 24.5351C21.502 25.3234 21.7352 25.5844 22.176 25.401C22.4691 25.2789 22.5052 23.9546 22.2237 23.6493C21.9995 23.4063 21.5174 23.376 21.3913 23.5971ZM22.7642 24.5112C22.6592 24.625 22.5734 24.8189 22.5734 24.9419C22.5734 25.0652 22.3815 25.5387 22.147 25.9941C21.6846 26.8922 21.7221 27.407 22.2502 27.407C22.6085 27.407 23.4477 26.1048 23.6154 25.2884C23.7718 24.527 23.2169 24.0203 22.7642 24.5112ZM18.7539 24.7408C18.5967 24.9463 18.5918 25.1476 18.7318 25.6457C18.831 25.9982 18.931 26.4805 18.9544 26.7175C19.0156 27.3419 19.6462 27.4075 19.895 26.8156C20.04 26.4705 20.0339 26.2115 19.8678 25.6404C19.5241 24.4586 19.1817 24.182 18.7539 24.7408ZM20.2608 25.0516C20.0791 25.8366 20.2309 26.282 20.7 26.3406C21.046 26.3838 21.1511 26.3106 21.2298 25.9703C21.4115 25.1853 21.2597 24.7399 20.7906 24.6813C20.4445 24.6381 20.3394 24.7113 20.2608 25.0516ZM27.3026 25.0748C26.9946 25.5342 26.9375 26.1218 27.1848 26.2876C27.6586 26.605 28.5755 25.5346 28.3575 24.9185C28.2148 24.5153 27.6187 24.6036 27.3026 25.0748ZM23.6644 25.925C23.5323 26.239 23.5459 26.52 23.7206 27.0885C23.9078 27.6971 24.0233 27.838 24.3352 27.838C24.7035 27.838 24.7175 27.7952 24.6752 26.811C24.6508 26.2394 24.545 25.7247 24.4368 25.65C24.092 25.4125 23.8423 25.5015 23.6644 25.925ZM25.2038 26.087C24.9642 26.277 24.9523 26.3995 25.1106 27.0373C25.314 27.8562 25.6543 28.1048 26.0237 27.704C26.2024 27.5105 26.2409 27.2676 26.1636 26.8208C26.0373 26.091 25.6104 25.7647 25.2038 26.087Z" fill="white"/>
<path d="M4.39965 43.6996V39.7773H2.8283V38.9072H7.01633V39.7773H5.44497V43.6996H4.39965Z" fill="white"/>
<path d="M10.0792 43.6996L10.8075 42.2449L8.78431 38.9072H9.89033L11.3066 41.2796L12.4935 38.9072H13.5726L11.1582 43.6996H10.0792Z" fill="white"/>
<path d="M15.4018 44.8553V42.8703H15.8806C16.2808 42.3673 16.4809 41.4677 16.4809 40.1716V38.9072H19.9675V42.8703H20.6419V44.8553H19.7247V43.6996H16.3258V44.8553H15.4018ZM16.9327 42.8703H18.9155V39.7298H17.4453V40.2736C17.4453 40.8808 17.4025 41.3975 17.3171 41.8235C17.2317 42.2449 17.1036 42.5939 16.9327 42.8703Z" fill="white"/>
<path d="M22.5968 43.6996L24.7818 38.9072H25.6248L27.8099 43.6996H26.7578L26.3127 42.6596H24.094L23.6556 43.6996H22.5968ZM25.1932 40.0289L24.4446 41.8371H25.9688L25.2067 40.0289H25.1932Z" fill="white"/>
<path d="M33.8518 43.6996V38.9072H34.8229V41.9866L37.1968 38.9072H37.9724V43.6996H37.0013V40.6067L34.6206 43.6996H33.8518Z" fill="white"/>
<path d="M2.34692 52.9999C1.87933 52.9999 1.46795 52.898 1.11276 52.694C0.762073 52.4856 0.487817 52.1978 0.289993 51.8307C0.0966642 51.4591 0 51.024 0 50.5255C0 50.027 0.0966642 49.5942 0.289993 49.2272C0.487817 48.8556 0.762073 48.5678 1.11276 48.3639C1.46345 48.1599 1.87484 48.058 2.34692 48.058C2.819 48.058 3.23038 48.1599 3.58107 48.3639C3.93626 48.5678 4.21051 48.8556 4.40384 49.2272C4.60166 49.5942 4.70058 50.0248 4.70058 50.5187C4.70058 51.0172 4.60166 51.4523 4.40384 51.8239C4.21051 52.1955 3.93626 52.4856 3.58107 52.694C3.23038 52.898 2.819 52.9999 2.34692 52.9999ZM2.34692 52.1026C2.74256 52.1026 3.05054 51.9644 3.27085 51.688C3.49565 51.407 3.60805 51.0195 3.60805 50.5255C3.60805 50.027 3.49789 49.6418 3.27759 49.3699C3.05729 49.0935 2.74706 48.9553 2.34692 48.9553C1.95576 48.9553 1.64779 49.0935 1.42299 49.3699C1.20268 49.6418 1.09253 50.027 1.09253 50.5255C1.09253 51.0195 1.20268 51.407 1.42299 51.688C1.64779 51.9644 1.95576 52.1026 2.34692 52.1026Z" fill="white"/>
<path d="M7.38617 52.9251V48.1327H10.8054V48.9553H8.38428V50.0633H9.63867C10.1467 50.0633 10.5469 50.1857 10.8391 50.4304C11.1358 50.6751 11.2842 51.0286 11.2842 51.4908C11.2842 51.9531 11.1358 52.3088 10.8391 52.5581C10.5469 52.8028 10.1467 52.9251 9.63867 52.9251H7.38617ZM8.38428 52.1094H9.49704C9.76681 52.1094 9.96463 52.0596 10.0905 51.9599C10.2164 51.8602 10.2793 51.7038 10.2793 51.4908C10.2793 51.2869 10.2164 51.1351 10.0905 51.0354C9.96463 50.9311 9.76681 50.879 9.49704 50.879H8.38428V52.1094Z" fill="white"/>
<path d="M13.8536 52.9251V48.1327H16.0251C16.5557 48.1327 16.9648 48.2687 17.2526 48.5406C17.5403 48.808 17.6842 49.1819 17.6842 49.6622C17.6842 50.1426 17.5403 50.5187 17.2526 50.7907C16.9648 51.0626 16.5557 51.1985 16.0251 51.1985H14.8989V52.9251H13.8536ZM14.8989 50.3828H15.8498C16.4028 50.3828 16.6793 50.1426 16.6793 49.6622C16.6793 49.1909 16.4028 48.9553 15.8498 48.9553H14.8989V50.3828Z" fill="white"/>
<path d="M19.6627 52.9251L21.8478 48.1327H22.6908L24.8759 52.9251H23.8238L23.3787 51.8851H21.1599L20.7216 52.9251H19.6627ZM22.2592 49.2544L21.5106 51.0626H23.0348L22.2727 49.2544H22.2592Z" fill="white"/>
<path d="M28.2968 52.9251V49.0028H26.7254V48.1327H30.9134V49.0028H29.3421V52.9251H28.2968Z" fill="white"/>
<path d="M33.3019 52.9251V48.1327H34.3472V50.0565H36.5592V48.1327H37.6046V52.9251H36.5592V50.9334H34.3472V52.9251H33.3019Z" fill="white"/>
<path d="M42.6463 52.9999C42.1788 52.9999 41.7674 52.898 41.4122 52.694C41.0615 52.4856 40.7872 52.1978 40.5894 51.8307C40.3961 51.4591 40.2994 51.024 40.2994 50.5255C40.2994 50.027 40.3961 49.5942 40.5894 49.2272C40.7872 48.8556 41.0615 48.5678 41.4122 48.3639C41.7629 48.1599 42.1743 48.058 42.6463 48.058C43.1184 48.058 43.5298 48.1599 43.8805 48.3639C44.2357 48.5678 44.5099 48.8556 44.7033 49.2272C44.9011 49.5942 45 50.0248 45 50.5187C45 51.0172 44.9011 51.4523 44.7033 51.8239C44.5099 52.1955 44.2357 52.4856 43.8805 52.694C43.5298 52.898 43.1184 52.9999 42.6463 52.9999ZM42.6463 52.1026C43.042 52.1026 43.35 51.9644 43.5703 51.688C43.7951 51.407 43.9075 51.0195 43.9075 50.5255C43.9075 50.027 43.7973 49.6418 43.577 49.3699C43.3567 49.0935 43.0465 48.9553 42.6463 48.9553C42.2552 48.9553 41.9472 49.0935 41.7224 49.3699C41.5021 49.6418 41.392 50.027 41.392 50.5255C41.392 51.0195 41.5021 51.407 41.7224 51.688C41.9472 51.9644 42.2552 52.1026 42.6463 52.1026Z" fill="white"/>
</svg>
