<svg xmlns="http://www.w3.org/2000/svg" width="200" height="200" viewBox="0 0 200 200" version="1.1"><path d="M 31.022 18.965 C 29.996 19.614, 29.428 22.194, 29.165 27.396 L 28.787 34.892 25.143 35.196 L 21.500 35.500 21.500 58.500 L 21.500 81.500 25.750 81.807 L 30 82.115 30 97.487 L 30 112.860 25.387 115.164 C 19.060 118.324, 11.631 126.725, 8.948 133.753 C 5.973 141.545, 6.018 151.422, 9.064 159.493 C 12.105 167.552, 20.255 175.765, 28.507 179.087 L 34.500 181.500 95.074 181.500 L 155.648 181.500 159.229 179.046 C 163.529 176.098, 165.574 172.864, 166.527 167.500 C 166.932 165.226, 168.460 162.205, 170.069 160.500 C 173.117 157.269, 176 151.256, 176 148.131 C 176 147.001, 177.380 145.383, 179.320 144.239 C 183.039 142.045, 186 136.714, 186 132.214 C 186 130.120, 186.760 128.732, 188.548 127.561 C 194.739 123.504, 196.868 113.979, 193.146 106.984 C 190.834 102.639, 184.728 99.038, 179.636 99.016 C 175.900 99.001, 168 102.509, 168 104.184 C 168 104.633, 165.561 105, 162.579 105 C 157.404 105, 157.130 104.868, 156.518 102.084 C 155.837 98.984, 153.960 97.694, 151.500 98.638 C 150.470 99.034, 150 100.644, 150 103.778 C 150 106.677, 149.377 109.030, 148.294 110.227 C 146.859 111.813, 146.792 112.437, 147.869 114.162 C 148.964 115.915, 148.858 116.523, 147.141 118.356 C 142.458 123.356, 142.120 130, 146.548 130 C 148.357 130, 149.125 129.311, 149.612 127.250 C 149.970 125.738, 151.200 123.468, 152.345 122.208 C 154.131 120.243, 154.245 119.622, 153.148 117.866 C 151.009 114.441, 154.111 113.069, 164.076 113.032 C 171.909 113.003, 172.855 112.784, 175 110.500 C 181.302 103.792, 190.879 111.996, 185.085 119.139 L 183.170 121.500 180.571 119.063 C 176.676 115.409, 167.765 114.963, 163.026 118.184 C 158.427 121.309, 156.119 125.375, 157.602 127.741 C 159.390 130.594, 162.980 130.502, 165.732 127.533 C 170.772 122.098, 179.404 126.271, 177.642 133.290 C 176.532 137.714, 173.720 138.431, 169.304 135.415 C 166.038 133.185, 164.685 132.875, 159.739 133.224 C 154.829 133.569, 153.462 134.129, 150.489 137.011 C 146.911 140.478, 146.078 143.678, 148.200 145.800 C 150.119 147.719, 153.088 147.197, 155.588 144.500 C 161.298 138.339, 170.949 144.622, 167.028 151.948 C 165.420 154.953, 163.199 155.076, 159.249 152.378 C 156.042 150.188, 154.667 149.877, 149.739 150.224 C 144.829 150.569, 143.462 151.129, 140.489 154.011 C 136.911 157.478, 136.078 160.678, 138.200 162.800 C 140.141 164.741, 143.478 164.184, 146 161.500 C 149.143 158.155, 153.234 158.210, 155.927 161.635 C 158.494 164.897, 158.545 167.105, 156.125 170.093 L 154.251 172.409 97.306 172.828 C 45.597 173.208, 39.816 173.089, 34.431 171.524 C 23.750 168.421, 15 156.917, 15 145.977 C 15 141.611, 17.648 134.150, 20.547 130.350 C 23.544 126.420, 31.415 121, 34.124 121 C 38.502 121, 39 118.847, 39 99.929 L 39 82 58.500 82 L 78 82 78 93.671 L 78 105.343 82.250 109.460 C 89.147 116.142, 89.211 116.270, 87.436 119.827 C 86.578 121.547, 86.017 124.652, 86.188 126.727 C 86.439 129.765, 86.939 130.562, 88.754 130.820 C 90.155 131.019, 91.252 130.506, 91.651 129.467 C 92.159 128.143, 92.573 128.457, 93.629 130.968 C 94.656 133.411, 95.487 134.070, 97.232 133.822 C 99.302 133.528, 99.500 132.975, 99.500 127.500 C 99.500 122.034, 99.299 121.471, 97.244 121.180 C 95.662 120.955, 94.684 121.553, 93.971 123.180 C 93.034 125.318, 92.998 125.277, 93.520 122.654 C 93.831 121.089, 93.609 119.234, 93.026 118.531 C 92.443 117.828, 92.234 116.554, 92.562 115.700 C 92.889 114.846, 93.235 110.859, 93.329 106.841 C 93.481 100.364, 93.283 99.493, 91.584 99.163 C 90.434 98.939, 88.943 99.732, 87.856 101.145 C 86.073 103.463, 86.044 103.329, 86.022 92.750 L 86 82 89.378 82 C 91.235 82, 93.269 81.381, 93.897 80.624 C 94.696 79.661, 94.959 72.666, 94.770 57.374 L 94.500 35.500 90.291 35.195 L 86.082 34.889 85.791 27.300 C 85.570 21.524, 85.102 19.460, 83.834 18.663 C 80.567 16.610, 79 19.515, 79 27.622 L 79 35 58 35 L 37 35 37 28.071 C 37 23.106, 36.555 20.698, 35.429 19.571 C 33.617 17.760, 33.052 17.682, 31.022 18.965 M 28 58.500 L 28 75 58 75 L 88 75 88 58.500 L 88 42 58 42 L 28 42 28 58.500 M 96.887 99.750 C 93.262 109.130, 95.271 118.368, 100.500 116.362 C 101.575 115.949, 102.020 114.189, 102.070 110.143 C 102.109 107.039, 102.502 103.600, 102.945 102.500 C 104.003 99.867, 102.437 97, 99.940 97 C 98.694 97, 97.553 98.028, 96.887 99.750 M 106.533 98.250 C 106.311 98.938, 106.107 100.850, 106.080 102.500 C 106.053 104.150, 105.911 107.300, 105.765 109.500 C 105.536 112.950, 105.800 113.543, 107.686 113.811 C 109.413 114.057, 110.288 113.219, 111.863 109.811 C 113.630 105.987, 113.795 105.853, 113.327 108.628 C 112.722 112.210, 114.376 116, 116.544 116 C 117.736 116, 117.793 116.359, 116.842 117.881 C 115.879 119.423, 116.056 120.256, 117.823 122.502 C 119.283 124.359, 119.784 126.012, 119.377 127.634 C 118.804 129.917, 120.340 133, 122.051 133 C 124.091 133, 126 129.544, 126 125.852 C 126 122.676, 125.338 121.188, 122.807 118.673 C 120.234 116.116, 119.670 114.820, 119.905 112.001 C 120.249 107.864, 122.111 103.834, 122.768 105.803 C 123.006 106.517, 122.639 108.458, 121.952 110.117 C 120.884 112.694, 120.945 113.373, 122.370 114.799 C 124.641 117.070, 127.124 115.428, 128.747 110.582 C 130.340 105.828, 128.930 102.589, 125.548 103.236 C 123.814 103.567, 123.376 103.277, 123.706 102.015 C 123.944 101.105, 123.456 99.794, 122.622 99.101 C 120.736 97.536, 118.526 98.649, 116.062 102.406 L 114.256 105.158 113.548 102.335 C 113.158 100.782, 112.370 98.946, 111.797 98.256 C 110.453 96.636, 107.056 96.632, 106.533 98.250 M 131.172 98.293 C 129.722 100.039, 131.934 111.761, 133.852 112.497 C 137.487 113.892, 139.266 107.460, 136.937 101.335 C 135.366 97.202, 133.079 95.995, 131.172 98.293 M 140.667 98.667 C 139.433 99.900, 139.986 105.744, 141.452 106.960 C 143.618 108.757, 146.455 107.797, 146.833 105.138 C 147.438 100.881, 146.153 98, 143.648 98 C 142.375 98, 141.033 98.300, 140.667 98.667 M 140.128 111.345 C 136.368 115.876, 138.875 123.233, 142.929 119.564 C 143.969 118.623, 145.105 116.718, 145.453 115.331 C 146.504 111.145, 142.674 108.279, 140.128 111.345 M 76.200 112.200 C 74.484 113.916, 74.699 115.389, 77.250 119.388 C 79.646 123.144, 83.580 124.258, 84.645 121.482 C 85.450 119.386, 83.158 114.224, 80.640 112.460 C 78.113 110.691, 77.732 110.668, 76.200 112.200 M 127.912 114.606 C 126.047 116.855, 126.257 124.685, 128.236 126.664 C 129.147 127.575, 130.576 127.952, 131.730 127.586 C 133.426 127.047, 133.671 126.078, 133.592 120.233 C 133.510 114.203, 133.282 113.469, 131.412 113.202 C 130.264 113.038, 128.689 113.670, 127.912 114.606 M 101.370 117.478 C 100.368 120.090, 101.731 127.330, 103.463 128.597 C 104.879 129.632, 104.887 129.830, 103.529 130.350 C 101.386 131.173, 101.626 134.255, 104.078 137.371 C 107.028 141.122, 109.773 142.433, 111.564 140.947 C 113.614 139.245, 113.342 137.074, 110.750 134.459 C 106.529 130.199, 106.209 129.528, 107.727 128.110 C 108.543 127.348, 108.840 126.102, 108.433 125.147 C 108.046 124.241, 107.447 121.925, 107.102 120 C 106.630 117.376, 105.912 116.420, 104.232 116.180 C 102.869 115.985, 101.748 116.494, 101.370 117.478 M 108.631 119.518 C 108.288 120.413, 108.438 121.949, 108.964 122.932 C 109.490 123.915, 109.665 126.290, 109.353 128.211 C 108.710 132.173, 110.704 133.764, 114.061 131.968 C 118.604 129.536, 116.872 118.787, 111.842 118.196 C 110.171 117.999, 109.035 118.468, 108.631 119.518 M 135.562 121.900 C 135.256 122.395, 135.035 123.857, 135.070 125.150 C 135.105 126.442, 134.560 129.415, 133.859 131.756 C 132.765 135.406, 132.802 136.230, 134.114 137.543 C 136.478 139.907, 138.663 138.326, 140.408 132.990 C 142.308 127.184, 142.429 123.829, 140.800 122.200 C 139.388 120.788, 136.356 120.615, 135.562 121.900 M 79.529 126.614 C 77.671 128.471, 77.675 128.315, 79.396 132.282 C 81.365 136.824, 86.552 142.109, 88.360 141.415 C 90.921 140.433, 91.200 137.733, 89.018 135.049 C 87.878 133.647, 86.299 131.092, 85.510 129.371 C 83.767 125.573, 81.579 124.564, 79.529 126.614 M 71.229 127.171 C 68.368 130.032, 71.647 139, 75.555 139 C 78.757 139, 79.327 137.625, 77.941 133.244 C 75.715 126.210, 73.864 124.536, 71.229 127.171 M 125.222 133.250 C 124.660 133.938, 124.042 137.650, 123.850 141.500 C 123.518 148.139, 123.617 148.517, 125.771 148.822 C 127.560 149.076, 128.355 148.394, 129.521 145.604 C 131.306 141.333, 131.451 134.851, 129.800 133.200 C 128.254 131.654, 126.512 131.673, 125.222 133.250 M 115.972 135.533 C 113.919 138.007, 113.496 146.337, 115.345 147.871 C 118.674 150.635, 120.456 148.872, 121.207 142.073 C 121.596 138.552, 121.682 135.295, 121.398 134.836 C 120.555 133.471, 117.341 133.884, 115.972 135.533 M 94.564 136.897 C 94.259 137.390, 94.290 139.839, 94.633 142.339 C 95.260 146.912, 96.727 148.426, 99.500 147.362 C 101.344 146.654, 101.571 138.971, 99.800 137.200 C 98.390 135.790, 95.357 135.614, 94.564 136.897 M 103.200 142.200 C 102.540 142.860, 102 143.985, 102 144.699 C 102 145.414, 100.793 148.161, 99.318 150.803 C 96.409 156.013, 96.645 159, 99.967 159 C 102.221 159, 107.500 151.445, 108.555 146.709 C 109.539 142.292, 106.048 139.352, 103.200 142.200 M 77.973 143.532 C 76.984 144.724, 76.953 145.892, 77.834 148.782 C 78.458 150.827, 79.087 153.625, 79.234 155 C 79.619 158.622, 83.586 159.003, 85.151 155.569 C 86.063 153.567, 86.025 152.064, 84.980 148.751 C 82.818 141.895, 80.664 140.290, 77.973 143.532 M 87.452 145.335 C 86.309 149.889, 87.264 152.473, 90.215 152.813 C 92.392 153.064, 93.053 152.639, 93.548 150.665 C 94.691 146.111, 93.736 143.527, 90.785 143.187 C 88.608 142.936, 87.947 143.361, 87.452 145.335 M 131.750 145.470 C 129.812 148.135, 129.453 151.544, 131.009 152.506 C 133.989 154.347, 139.757 148.137, 138.386 144.563 C 137.488 142.224, 133.738 142.736, 131.750 145.470 M 108.863 150.402 C 108.032 152.224, 108.118 153.854, 109.217 157.152 C 110.394 160.683, 111.121 161.500, 113.083 161.500 C 115.400 161.500, 115.488 161.252, 115.222 155.542 C 115.068 152.226, 114.403 149.240, 113.722 148.807 C 111.553 147.429, 109.982 147.945, 108.863 150.402 M 118.547 151.342 C 117.040 152.444, 116.965 153.155, 117.961 156.855 C 119.240 161.606, 121.381 163.048, 123.705 160.723 C 124.829 159.600, 125.071 158.191, 124.585 155.599 C 123.790 151.365, 121.105 149.472, 118.547 151.342" stroke="none" fill="#000000" fill-rule="evenodd"/></svg>